# xmcd CD database file
#
# Track frame offsets:
#	150
#	17190
#	46330
#	65030
#	87092
#	108600
#	129250
#	143217
#	162087
#	176657
#	192230
#	209055
#	227852
#
# Disc length: 3307 seconds
#
# Revision: 0
# Processed by: cddbd v1.5.1PL0 Copyright (c) Steve Scherf et al.
# Submitted via: Feurio! 1.67 - http://www.feurio.com
#
DISCID=bb0ce90d
DTITLE=Lyle Lovett - The Road To Ensenada
DYEAR=1900
DGENRE=
TTITLE0=Don´t Touch My Hat
TTITLE1=Here First Mistake
TTITLE2=Fiona
TTITLE3=That´s Right
TTITLE4=Who Loves You Better
TTITLE5=Private Conversation
TTITLE6=Promises
TTITLE7=It Ought To Be Easier
TTITLE8=I Can´t Love You Anymore
TTITLE9=Long Tall Texan
TTITLE10=Christmas Morning
TTITLE11=The Road To Ensenada
TTITLE12=Bonus
EXTD=
EXTT0=
EXTT1=
EXTT2=
EXTT3=
EXTT4=
EXTT5=
EXTT6=
EXTT7=
EXTT8=
EXTT9=
EXTT10=
EXTT11=
EXTT12=
PLAYORDER=
